<svg width="80" height="41" viewBox="0 0 80 41" fill="none" xmlns="http://www.w3.org/2000/svg">
<path d="M13.3926 18.332C12.8066 19.3086 12.4551 20.2689 12.3379 21.2129C12.3379 27.9902 12.3379 31.3724 12.3379 31.3594H13.7051V25.3828C14.2845 26.0924 14.9323 26.623 15.6484 26.9746C16.3646 27.3197 17.1491 27.4922 18.002 27.4922C19.5124 27.4922 20.8047 26.9421 21.8789 25.8418C22.9531 24.7415 23.4902 23.4069 23.4902 21.8379C23.4902 20.2949 22.9499 18.9766 21.8691 17.8828C20.7884 16.7891 19.4863 16.2422 17.9629 16.2422C17.0905 16.2422 16.2702 16.4115 15.502 16.75C14.7402 17.082 14.0371 17.6094 13.3926 18.332ZM17.8457 17.5605C18.6204 17.5605 19.3301 17.7526 19.9746 18.1367C20.6257 18.5143 21.1432 19.0417 21.5273 19.7188C21.9115 20.3958 22.1035 21.1185 22.1035 21.8867C22.1035 22.6419 21.9082 23.3678 21.5176 24.0645C21.1335 24.7546 20.6126 25.2917 19.9551 25.6758C19.304 26.0534 18.6074 26.2422 17.8652 26.2422C17.11 26.2422 16.3939 26.0534 15.7168 25.6758C15.0397 25.2917 14.5189 24.7741 14.1543 24.123C13.7897 23.4655 13.6074 22.7331 13.6074 21.9258C13.6074 20.6823 14.0176 19.6439 14.8379 18.8105C15.6582 17.9772 16.6608 17.5605 17.8457 17.5605ZM32.3223 16.2031C33.9694 16.2031 35.3366 16.7988 36.4238 17.9902C37.4069 19.084 37.8984 20.3763 37.8984 21.8672C37.8984 23.3581 37.3776 24.6634 36.3359 25.7832C35.2943 26.8965 33.9564 27.4531 32.3223 27.4531C30.6816 27.4531 29.3405 26.8965 28.2988 25.7832C27.2637 24.6634 26.7461 23.3581 26.7461 21.8672C26.7461 20.3828 27.2376 19.0938 28.2207 18C29.3079 16.8021 30.6751 16.2031 32.3223 16.2031ZM32.3223 17.5508C31.1829 17.5508 30.2031 17.974 29.3828 18.8203C28.5625 19.6667 28.1523 20.6888 28.1523 21.8867C28.1523 22.6615 28.3379 23.3874 28.709 24.0645C29.0866 24.735 29.5944 25.2526 30.2324 25.6172C30.8704 25.9753 31.5671 26.1543 32.3223 26.1543C33.0905 26.1543 33.7904 25.9753 34.4219 25.6172C35.0599 25.2526 35.5645 24.735 35.9355 24.0645C36.3066 23.3874 36.4922 22.6615 36.4922 21.8867C36.4922 20.6888 36.082 19.6667 35.2617 18.8203C34.4414 17.974 33.4616 17.5508 32.3223 17.5508ZM51.3496 25.3633C51.9355 24.3867 52.2871 23.4264 52.4043 22.4824C52.4043 15.7051 52.4043 12.3229 52.4043 12.3359H51.0371V18.3125C50.4577 17.6029 49.8099 17.0755 49.0938 16.7305C48.3776 16.3789 47.5931 16.2031 46.7402 16.2031C45.2298 16.2031 43.9375 16.7533 42.8633 17.8535C41.7891 18.9538 41.252 20.2884 41.252 21.8574C41.252 23.4004 41.7923 24.7188 42.873 25.8125C43.9538 26.9062 45.2559 27.4531 46.7793 27.4531C47.6517 27.4531 48.4688 27.2871 49.2305 26.9551C49.9987 26.6165 50.7051 26.0859 51.3496 25.3633ZM46.8965 26.1348C46.1217 26.1348 45.4089 25.946 44.7578 25.5684C44.1133 25.1842 43.599 24.6536 43.2148 23.9766C42.8307 23.2995 42.6387 22.5768 42.6387 21.8086C42.6387 21.0534 42.8307 20.3307 43.2148 19.6406C43.6055 18.944 44.1263 18.4069 44.7773 18.0293C45.4349 17.6452 46.1348 17.4531 46.877 17.4531C47.6322 17.4531 48.3483 17.6452 49.0254 18.0293C49.7025 18.4069 50.2233 18.9245 50.5879 19.582C50.9525 20.2331 51.1348 20.9622 51.1348 21.7695C51.1348 23.013 50.7246 24.0514 49.9043 24.8848C49.084 25.7181 48.0814 26.1348 46.8965 26.1348ZM56.2168 12.5898H57.6035V21.0469L62.5547 16.7305H64.5859L60.1035 20.8027L64.9277 27.4434H62.9746L58.7559 21.6816L57.6035 22.6289V27.4434H56.2168V12.5898ZM72.4121 16.2031C74.0592 16.2031 75.4264 16.7988 76.5137 17.9902C77.5163 19.0775 78.0176 20.3698 78.0176 21.8672C78.0306 25.5651 78.0306 27.4434 78.0176 27.502C77.3926 27.502 76.9076 27.502 76.5625 27.502C76.5625 27.4564 76.5625 26.6458 76.5625 25.0703C75.8008 26.4896 74.4173 27.2839 72.4121 27.4531C70.7715 27.4531 69.4303 26.8965 68.3887 25.7832C67.3535 24.6634 66.8359 23.3581 66.8359 21.8672C66.8359 20.3828 67.3275 19.0938 68.3105 18C69.3978 16.8021 70.765 16.2031 72.4121 16.2031ZM72.4121 17.5508C71.2728 17.5508 70.293 17.974 69.4727 18.8203C68.6523 19.6667 68.2422 20.6888 68.2422 21.8867C68.2422 22.6615 68.4505 23.4069 68.8672 24.123C69.2904 24.8392 70.0033 25.4447 71.0059 25.9395C73.5189 26.4993 75.306 25.3568 76.3672 22.5117C76.4258 21.6003 76.3281 20.7279 76.0742 19.8945C75.8919 19.5169 75.6413 19.1589 75.3223 18.8203C74.5215 17.974 73.5514 17.5508 72.4121 17.5508Z" fill="black"/>
<rect width="10" height="29.8182" rx="5" fill="#322EDD"/>
<rect x="11" width="10" height="14.9091" rx="5" fill="#F72D20"/>
</svg>
